<mxfile host="app.diagrams.net" agent="Mozilla/5.0 (Windows NT 10.0; Win64; x64) AppleWebKit/537.36 (KHTML, like Gecko) Chrome/129.0.0.0 Safari/537.36" version="24.8.0">
  <diagram name="Page-1" id="csEMs_P9NnUE9rA18J7h">
    <mxGraphModel dx="2100" dy="1114" grid="1" gridSize="10" guides="1" tooltips="1" connect="1" arrows="1" fold="1" page="1" pageScale="1" pageWidth="850" pageHeight="1100" math="0" shadow="0">
      <root>
        <mxCell id="0" />
        <mxCell id="1" parent="0" />
        <mxCell id="0YM9IS0VdgkKYLfWeGfK-16" style="edgeStyle=orthogonalEdgeStyle;rounded=0;orthogonalLoop=1;jettySize=auto;html=1;exitX=0.5;exitY=1;exitDx=0;exitDy=0;entryX=0.5;entryY=0;entryDx=0;entryDy=0;" edge="1" parent="1" source="0YM9IS0VdgkKYLfWeGfK-1" target="0YM9IS0VdgkKYLfWeGfK-2">
          <mxGeometry relative="1" as="geometry" />
        </mxCell>
        <mxCell id="0YM9IS0VdgkKYLfWeGfK-1" value="TEXT DOC" style="rounded=1;whiteSpace=wrap;html=1;" vertex="1" parent="1">
          <mxGeometry x="380" y="110" width="120" height="60" as="geometry" />
        </mxCell>
        <mxCell id="0YM9IS0VdgkKYLfWeGfK-17" style="edgeStyle=orthogonalEdgeStyle;rounded=0;orthogonalLoop=1;jettySize=auto;html=1;exitX=0.5;exitY=1;exitDx=0;exitDy=0;entryX=0.5;entryY=0;entryDx=0;entryDy=0;" edge="1" parent="1" source="0YM9IS0VdgkKYLfWeGfK-2" target="0YM9IS0VdgkKYLfWeGfK-3">
          <mxGeometry relative="1" as="geometry" />
        </mxCell>
        <mxCell id="0YM9IS0VdgkKYLfWeGfK-2" value="Normalization of text" style="rounded=1;whiteSpace=wrap;html=1;" vertex="1" parent="1">
          <mxGeometry x="380" y="210" width="120" height="60" as="geometry" />
        </mxCell>
        <mxCell id="0YM9IS0VdgkKYLfWeGfK-18" style="edgeStyle=orthogonalEdgeStyle;rounded=0;orthogonalLoop=1;jettySize=auto;html=1;exitX=0.5;exitY=1;exitDx=0;exitDy=0;entryX=0.5;entryY=0;entryDx=0;entryDy=0;" edge="1" parent="1" source="0YM9IS0VdgkKYLfWeGfK-3" target="0YM9IS0VdgkKYLfWeGfK-6">
          <mxGeometry relative="1" as="geometry" />
        </mxCell>
        <mxCell id="0YM9IS0VdgkKYLfWeGfK-19" style="edgeStyle=orthogonalEdgeStyle;rounded=0;orthogonalLoop=1;jettySize=auto;html=1;exitX=0;exitY=1;exitDx=0;exitDy=0;entryX=0.5;entryY=0;entryDx=0;entryDy=0;" edge="1" parent="1" source="0YM9IS0VdgkKYLfWeGfK-3" target="0YM9IS0VdgkKYLfWeGfK-4">
          <mxGeometry relative="1" as="geometry" />
        </mxCell>
        <mxCell id="0YM9IS0VdgkKYLfWeGfK-20" style="edgeStyle=orthogonalEdgeStyle;rounded=0;orthogonalLoop=1;jettySize=auto;html=1;exitX=1;exitY=1;exitDx=0;exitDy=0;entryX=0.5;entryY=0;entryDx=0;entryDy=0;" edge="1" parent="1" source="0YM9IS0VdgkKYLfWeGfK-3" target="0YM9IS0VdgkKYLfWeGfK-5">
          <mxGeometry relative="1" as="geometry" />
        </mxCell>
        <mxCell id="0YM9IS0VdgkKYLfWeGfK-3" value="Identify named entities using regex" style="rounded=1;whiteSpace=wrap;html=1;" vertex="1" parent="1">
          <mxGeometry x="380" y="320" width="120" height="60" as="geometry" />
        </mxCell>
        <mxCell id="0YM9IS0VdgkKYLfWeGfK-21" style="edgeStyle=orthogonalEdgeStyle;rounded=0;orthogonalLoop=1;jettySize=auto;html=1;exitX=0.5;exitY=1;exitDx=0;exitDy=0;entryX=0;entryY=0.5;entryDx=0;entryDy=0;" edge="1" parent="1" source="0YM9IS0VdgkKYLfWeGfK-4" target="0YM9IS0VdgkKYLfWeGfK-7">
          <mxGeometry relative="1" as="geometry" />
        </mxCell>
        <mxCell id="0YM9IS0VdgkKYLfWeGfK-4" value="Identify names" style="rounded=1;whiteSpace=wrap;html=1;" vertex="1" parent="1">
          <mxGeometry x="180" y="430" width="120" height="60" as="geometry" />
        </mxCell>
        <mxCell id="0YM9IS0VdgkKYLfWeGfK-24" style="edgeStyle=orthogonalEdgeStyle;rounded=0;orthogonalLoop=1;jettySize=auto;html=1;exitX=0.5;exitY=1;exitDx=0;exitDy=0;entryX=1;entryY=0.5;entryDx=0;entryDy=0;" edge="1" parent="1" source="0YM9IS0VdgkKYLfWeGfK-5" target="0YM9IS0VdgkKYLfWeGfK-7">
          <mxGeometry relative="1" as="geometry" />
        </mxCell>
        <mxCell id="0YM9IS0VdgkKYLfWeGfK-5" value="Identify dates" style="rounded=1;whiteSpace=wrap;html=1;" vertex="1" parent="1">
          <mxGeometry x="560" y="430" width="120" height="60" as="geometry" />
        </mxCell>
        <mxCell id="0YM9IS0VdgkKYLfWeGfK-23" style="edgeStyle=orthogonalEdgeStyle;rounded=0;orthogonalLoop=1;jettySize=auto;html=1;exitX=0.5;exitY=1;exitDx=0;exitDy=0;entryX=0.5;entryY=0;entryDx=0;entryDy=0;" edge="1" parent="1" source="0YM9IS0VdgkKYLfWeGfK-6" target="0YM9IS0VdgkKYLfWeGfK-7">
          <mxGeometry relative="1" as="geometry" />
        </mxCell>
        <mxCell id="0YM9IS0VdgkKYLfWeGfK-6" value="Identify places" style="rounded=1;whiteSpace=wrap;html=1;" vertex="1" parent="1">
          <mxGeometry x="380" y="430" width="120" height="60" as="geometry" />
        </mxCell>
        <mxCell id="0YM9IS0VdgkKYLfWeGfK-25" style="edgeStyle=orthogonalEdgeStyle;rounded=0;orthogonalLoop=1;jettySize=auto;html=1;exitX=0.5;exitY=1;exitDx=0;exitDy=0;entryX=0.5;entryY=0;entryDx=0;entryDy=0;" edge="1" parent="1" source="0YM9IS0VdgkKYLfWeGfK-7" target="0YM9IS0VdgkKYLfWeGfK-8">
          <mxGeometry relative="1" as="geometry" />
        </mxCell>
        <mxCell id="0YM9IS0VdgkKYLfWeGfK-7" value="Output" style="rounded=1;whiteSpace=wrap;html=1;" vertex="1" parent="1">
          <mxGeometry x="380" y="540" width="120" height="60" as="geometry" />
        </mxCell>
        <mxCell id="0YM9IS0VdgkKYLfWeGfK-26" style="edgeStyle=orthogonalEdgeStyle;rounded=0;orthogonalLoop=1;jettySize=auto;html=1;exitX=0.5;exitY=1;exitDx=0;exitDy=0;" edge="1" parent="1" source="0YM9IS0VdgkKYLfWeGfK-8">
          <mxGeometry relative="1" as="geometry">
            <mxPoint x="440" y="730" as="targetPoint" />
          </mxGeometry>
        </mxCell>
        <mxCell id="0YM9IS0VdgkKYLfWeGfK-8" value="Check if present" style="rounded=1;whiteSpace=wrap;html=1;" vertex="1" parent="1">
          <mxGeometry x="380" y="640" width="120" height="60" as="geometry" />
        </mxCell>
        <mxCell id="0YM9IS0VdgkKYLfWeGfK-12" style="edgeStyle=orthogonalEdgeStyle;rounded=0;orthogonalLoop=1;jettySize=auto;html=1;exitX=0;exitY=0.5;exitDx=0;exitDy=0;entryX=1;entryY=0.5;entryDx=0;entryDy=0;" edge="1" parent="1" source="0YM9IS0VdgkKYLfWeGfK-9" target="0YM9IS0VdgkKYLfWeGfK-10">
          <mxGeometry relative="1" as="geometry" />
        </mxCell>
        <mxCell id="0YM9IS0VdgkKYLfWeGfK-13" style="edgeStyle=orthogonalEdgeStyle;rounded=0;orthogonalLoop=1;jettySize=auto;html=1;exitX=1;exitY=0.5;exitDx=0;exitDy=0;entryX=0;entryY=0.5;entryDx=0;entryDy=0;" edge="1" parent="1" source="0YM9IS0VdgkKYLfWeGfK-9" target="0YM9IS0VdgkKYLfWeGfK-11">
          <mxGeometry relative="1" as="geometry" />
        </mxCell>
        <mxCell id="0YM9IS0VdgkKYLfWeGfK-27" style="edgeStyle=orthogonalEdgeStyle;rounded=0;orthogonalLoop=1;jettySize=auto;html=1;exitX=0.5;exitY=1;exitDx=0;exitDy=0;" edge="1" parent="1" source="0YM9IS0VdgkKYLfWeGfK-9">
          <mxGeometry relative="1" as="geometry">
            <mxPoint x="440" y="860" as="targetPoint" />
          </mxGeometry>
        </mxCell>
        <mxCell id="0YM9IS0VdgkKYLfWeGfK-9" value="if" style="rhombus;whiteSpace=wrap;html=1;" vertex="1" parent="1">
          <mxGeometry x="400" y="735" width="80" height="70" as="geometry" />
        </mxCell>
        <mxCell id="0YM9IS0VdgkKYLfWeGfK-10" value="Save" style="rounded=1;whiteSpace=wrap;html=1;" vertex="1" parent="1">
          <mxGeometry x="160" y="740" width="120" height="60" as="geometry" />
        </mxCell>
        <mxCell id="0YM9IS0VdgkKYLfWeGfK-11" value="Increase count" style="rounded=1;whiteSpace=wrap;html=1;" vertex="1" parent="1">
          <mxGeometry x="590" y="740" width="120" height="60" as="geometry" />
        </mxCell>
        <mxCell id="0YM9IS0VdgkKYLfWeGfK-14" value="Not present" style="text;html=1;align=center;verticalAlign=middle;resizable=0;points=[];autosize=1;strokeColor=none;fillColor=none;" vertex="1" parent="1">
          <mxGeometry x="300" y="740" width="90" height="30" as="geometry" />
        </mxCell>
        <mxCell id="0YM9IS0VdgkKYLfWeGfK-15" value="Already present" style="text;html=1;align=center;verticalAlign=middle;resizable=0;points=[];autosize=1;strokeColor=none;fillColor=none;" vertex="1" parent="1">
          <mxGeometry x="465" y="738" width="110" height="30" as="geometry" />
        </mxCell>
        <mxCell id="0YM9IS0VdgkKYLfWeGfK-28" value="Stop" style="ellipse;whiteSpace=wrap;html=1;" vertex="1" parent="1">
          <mxGeometry x="390" y="860" width="100" height="70" as="geometry" />
        </mxCell>
        <mxCell id="0YM9IS0VdgkKYLfWeGfK-30" style="edgeStyle=orthogonalEdgeStyle;rounded=0;orthogonalLoop=1;jettySize=auto;html=1;exitX=0.5;exitY=1;exitDx=0;exitDy=0;entryX=0.5;entryY=0;entryDx=0;entryDy=0;" edge="1" parent="1" source="0YM9IS0VdgkKYLfWeGfK-29" target="0YM9IS0VdgkKYLfWeGfK-1">
          <mxGeometry relative="1" as="geometry" />
        </mxCell>
        <mxCell id="0YM9IS0VdgkKYLfWeGfK-29" value="Start" style="ellipse;whiteSpace=wrap;html=1;" vertex="1" parent="1">
          <mxGeometry x="390" width="100" height="70" as="geometry" />
        </mxCell>
      </root>
    </mxGraphModel>
  </diagram>
</mxfile>
